<?xml version="1.0" encoding="UTF-8" standalone="no"?>
<!-- Created with Inkscape (http://www.inkscape.org/) -->

<svg
   xmlns:dc="http://purl.org/dc/elements/1.1/"
   xmlns:cc="http://creativecommons.org/ns#"
   xmlns:rdf="http://www.w3.org/1999/02/22-rdf-syntax-ns#"
   xmlns:svg="http://www.w3.org/2000/svg"
   xmlns="http://www.w3.org/2000/svg"
   xmlns:xlink="http://www.w3.org/1999/xlink"
   xmlns:sodipodi="http://sodipodi.sourceforge.net/DTD/sodipodi-0.dtd"
   xmlns:inkscape="http://www.inkscape.org/namespaces/inkscape"
   width="21px"
   height="21px"
   viewBox="0 0 21 21"
   version="1.1"
   id="SVGRoot"
   inkscape:version="0.92.3 (2405546, 2018-03-11)"
   sodipodi:docname="drawing-3.svg">
  <sodipodi:namedview
     id="base"
     pagecolor="#ffffff"
     bordercolor="#666666"
     borderopacity="1.0"
     inkscape:pageopacity="0.0"
     inkscape:pageshadow="2"
     inkscape:zoom="12.190476"
     inkscape:cx="10.5"
     inkscape:cy="10.5"
     inkscape:document-units="px"
     inkscape:current-layer="layer1"
     showgrid="false"
     inkscape:window-width="1920"
     inkscape:window-height="1001"
     inkscape:window-x="-9"
     inkscape:window-y="-9"
     inkscape:window-maximized="1"
     inkscape:grid-bbox="true" />
  <defs
     id="defs3114">
    <linearGradient
       inkscape:collect="always"
       xlink:href="#gradient"
       id="linearGradient879"
       x1="387.82962"
       y1="499.99252"
       x2="612.20453"
       y2="499.99252"
       gradientUnits="userSpaceOnUse"
       gradientTransform="matrix(0.09317205,0,0,0.09364461,-36.005583,-36.321597)" />
    <linearGradient
       id="gradient"
       x1="0"
       y1="0"
       x2="1"
       y2="1">
      <stop
         offset="0%"
         style="stop-color:rgb(0,115,204);stop-opacity:0.8"
         id="stop2" />
      <stop
         offset="100%"
         style="stop-color:rgb(0,204,186);stop-opacity:0.8"
         id="stop4" />
    </linearGradient>
  </defs>
  <metadata
     id="metadata3117">
    <rdf:RDF>
      <cc:Work
         rdf:about="">
        <dc:format>image/svg+xml</dc:format>
        <dc:type
           rdf:resource="http://purl.org/dc/dcmitype/StillImage" />
        <dc:title></dc:title>
      </cc:Work>
    </rdf:RDF>
  </metadata>
  <g
     id="layer1"
     inkscape:groupmode="layer"
     inkscape:label="Layer 1">
    <path
       style="opacity:1;fill:url(#linearGradient879);fill-opacity:1;fill-rule:nonzero;stroke:none;stroke-width:0.07068244;stroke-miterlimit:4;stroke-dasharray:none;stroke-opacity:1"
       d="M 9.4632467,20.95157 C 7.4633261,20.74256 5.3840454,19.844504 3.8278013,18.517585 0.9167869,16.035535 -0.4155873,12.184822 0.33537008,8.4240781 0.79213964,6.1365975 2.0672355,3.9618066 3.8121496,2.4941146 7.5778555,-0.67331602 12.848865,-0.84793392 16.807951,2.0635978 c 0.662671,0.4873308 1.652473,1.4786768 2.143863,2.1472084 2.364665,3.2170923 2.744018,7.3906158 0.994277,10.9386738 -0.572701,1.1613 -1.182723,1.992792 -2.149924,2.930456 -0.859821,0.833569 -1.613381,1.360193 -2.707065,1.89183 -1.706647,0.829598 -3.715481,1.179457 -5.6258553,0.979804 z M 7.783904,18.14163 C 7.4679009,17.394052 7.1016714,16.075521 6.9288501,15.063196 6.8761512,14.754514 6.8230905,14.491954 6.8109341,14.479737 c -0.012161,-0.01216 -0.7813297,-0.01636 -1.7092742,-0.0092 l -1.6871648,0.01317 0.339218,0.520797 c 0.8642013,1.326799 2.0723112,2.361998 3.5085675,3.006395 0.5394067,0.242014 0.5720971,0.250211 0.5216231,0.13079 z m 6.279395,-0.212569 c 1.098262,-0.517762 2.1301,-1.334732 2.91077,-2.304624 0.204045,-0.253505 0.755235,-1.082587 0.755235,-1.136004 0,-0.01629 -0.764146,-0.0296 -1.698104,-0.0296 h -1.6981 l -0.05807,0.359599 c -0.170523,1.056134 -0.558713,2.529236 -0.840791,3.190636 l -0.0963,0.225799 0.110659,-0.03411 c 0.06086,-0.01876 0.337476,-0.141029 0.614693,-0.271715 z m -3.155686,-0.34543 c 0.306811,-0.557101 0.776545,-2.095051 0.880538,-2.882966 l 0.03191,-0.241827 H 10.576947 9.3338238 l 0.034158,0.235601 c 0.05862,0.404358 0.3527828,1.554324 0.5170256,2.021197 0.1796566,0.510693 0.3978316,0.968124 0.5745246,1.204563 l 0.121783,0.162966 0.08803,-0.113363 c 0.04842,-0.06235 0.155638,-0.236125 0.238268,-0.386165 z M 6.572768,10.515651 6.5726322,8.8540527 H 4.5791761 c -1.8554187,0 -1.995358,0.00601 -2.0203976,0.086795 -0.1715654,0.5535875 -0.1706487,2.5629503 0.00144,3.1495923 0.02372,0.08082 0.1629977,0.08681 2.0191088,0.08681 H 6.572979 l -2.717e-4,-1.661595 z m 5.554114,0.814041 c 0.01984,-0.466154 0.01994,-1.214189 2.7e-4,-1.6623022 l -0.03576,-0.8147538 -1.511479,0.013105 -1.5114803,0.013118 -0.01382,1.537597 c -0.00759,0.845676 -0.00177,1.587816 0.013292,1.649194 l 0.027079,0.111596 H 10.5929 12.090816 Z m 6.529356,0.475554 c 0.08967,-0.49165 0.09908,-1.8821008 0.01671,-2.4675958 l -0.06804,-0.4835975 h -2.004642 l -2.004647,2.6e-6 v 1.6621407 1.662142 l 1.998657,-0.01294 1.998661,-0.01293 z M 6.8445598,6.4112566 C 6.8574424,6.3498783 6.924294,5.997228 6.9931454,5.6275899 7.1476173,4.7983201 7.4023018,3.8540145 7.6344071,3.2499731 7.7310003,2.9985866 7.8100339,2.785554 7.8100339,2.7765616 c 0,-0.026936 -0.593191,0.2237805 -0.9111863,0.3851163 C 5.6066159,3.8173026 4.3651543,4.9639413 3.6221868,6.1880563 L 3.4189831,6.5228574 H 5.1200723 6.8211614 Z M 11.785415,6.2872573 C 11.728546,5.8830292 11.415682,4.6533541 11.265641,4.2443577 11.093635,3.7754886 10.821125,3.2214867 10.678567,3.0508626 L 10.574955,2.9268658 10.474272,3.0508626 C 10.098299,3.5139043 9.6053678,4.970178 9.3620077,6.3368578 l -0.03312,0.1859996 h 1.2448363 1.244837 z m 5.889151,0.123998 C 17.532425,6.1387424 17.0952,5.5212618 16.772827,5.1377494 15.980124,4.1947064 14.750875,3.3147605 13.575962,2.8493052 c -0.233474,-0.092495 -0.248024,-0.093235 -0.21337,-0.01084 0.336334,0.7995265 0.678205,2.0048523 0.86108,3.0358805 0.05528,0.3116665 0.100508,0.5850893 0.100508,0.6075994 0,0.022524 0.766933,0.040927 1.704295,0.040927 h 1.704299 z"
       id="path861"
       inkscape:connector-curvature="0" />
  </g>
</svg>
